<mxfile host="app.diagrams.net" modified="2023-06-26T07:33:33.854Z" agent="Mozilla/5.0 (Windows NT 10.0; Win64; x64) AppleWebKit/537.36 (KHTML, like Gecko) Chrome/114.0.0.0 Safari/537.36" version="21.5.0" etag="g3IohlRHayahrcaKe4EX" type="github">
  <diagram name="Halaman-1" id="k_GMjOLH_HNS1R4GG2ug">
    <mxGraphModel>
      <root>
        <mxCell id="0" />
        <mxCell id="1" parent="0" />
      </root>
    </mxGraphModel>
  </diagram>
</mxfile>
